<svg width="32" height="33" viewBox="0 0 32 33" fill="none" xmlns="http://www.w3.org/2000/svg">
<path d="M16.0133 28.2539C14.3428 28.2539 12.7821 27.9407 11.3314 27.3142C9.88069 26.6878 8.61129 25.832 7.5232 24.7471C6.43511 23.6621 5.57589 22.3997 4.94553 20.96C4.31518 19.5202 4 17.9727 4 16.3176C4 14.6624 4.31488 13.11 4.94463 11.6604C5.57441 10.2108 6.43466 8.94846 7.52537 7.87352C8.61608 6.7986 9.88511 5.94762 11.3325 5.32057C12.7798 4.69353 14.3355 4.38 15.9994 4.38C17.6633 4.38 19.2239 4.69323 20.6812 5.31967C22.1385 5.94614 23.4074 6.79634 24.488 7.87027C25.5686 8.9442 26.4241 10.2071 27.0545 11.6588C27.6848 13.1106 28 14.6589 28 16.3037C28 17.9655 27.6851 19.5179 27.0554 20.961C26.4256 22.4041 25.5709 23.6648 24.4913 24.7431C23.4117 25.8214 22.1422 26.6761 20.6827 27.3072C19.2233 27.9384 17.6668 28.2539 16.0133 28.2539ZM16.0038 27.2337C19.0543 27.2337 21.6453 26.1722 23.7769 24.0492C25.9086 21.9262 26.9744 19.3475 26.9744 16.3131C26.9744 13.2787 25.9112 10.7013 23.7849 8.58088C21.6586 6.46046 19.0637 5.40025 16 5.40025C12.9521 5.40025 10.3611 6.45781 8.22693 8.57293C6.09273 10.688 5.02563 13.2694 5.02563 16.317C5.02563 19.3488 6.09273 21.9262 8.22693 24.0492C10.3611 26.1722 12.9534 27.2337 16.0038 27.2337Z" fill="#333333"/>
<path d="M12.1563 20.8571C12.6914 20.8571 13.141 20.676 13.5051 20.3137C13.8692 19.9515 14.0512 19.5056 14.0512 18.9759C14.0512 18.4463 13.8692 17.9991 13.5051 17.6344C13.141 17.2696 12.6927 17.0872 12.1602 17.0872C11.6277 17.0872 11.1781 17.2684 10.8115 17.6306C10.4448 17.9928 10.2615 18.4387 10.2615 18.9684C10.2615 19.498 10.4439 19.9452 10.8088 20.31C11.1737 20.6747 11.6229 20.8571 12.1563 20.8571ZM19.8397 20.8571C20.3722 20.8571 20.8217 20.676 21.1884 20.3137C21.5551 19.9515 21.7384 19.5056 21.7384 18.9759C21.7384 18.4463 21.5563 17.9991 21.1922 17.6344C20.828 17.2696 20.3798 17.0872 19.8473 17.0872C19.3149 17.0872 18.8653 17.2684 18.4986 17.6306C18.132 17.9928 17.9486 18.4387 17.9486 18.9684C17.9486 19.498 18.1307 19.9452 18.4949 20.31C18.859 20.6747 19.3073 20.8571 19.8397 20.8571ZM15.9961 13.9678C16.5286 13.9678 16.9781 13.7867 17.3448 13.4245C17.7115 13.0623 17.8948 12.6164 17.8948 12.0867C17.8948 11.5571 17.7127 11.1098 17.3486 10.7451C16.9845 10.3804 16.5362 10.198 16.0037 10.198C15.4713 10.198 15.0217 10.3795 14.6551 10.7424C14.2884 11.1054 14.1051 11.5522 14.1051 12.0829C14.1051 12.6151 14.2871 13.0623 14.6513 13.4245C15.0154 13.7867 15.4637 13.9678 15.9961 13.9678Z" fill="#FB792B"/>
</svg>
