<svg width="32" height="33" viewBox="0 0 32 33" fill="none" xmlns="http://www.w3.org/2000/svg">
<path fill-rule="evenodd" clip-rule="evenodd" d="M25.633 27.6139H5.99999C5.26399 27.6139 4.66699 27.02 4.66699 26.2879V8.96237C4.66699 8.22824 5.26399 7.63538 5.99999 7.63538H25.633C26.369 7.63538 26.967 8.22824 26.967 8.96237V26.2879C26.967 27.02 26.369 27.6139 25.633 27.6139Z" stroke="#333333"/>
<path d="M21.575 5.01624V10.5868M9.85999 5.01624V10.5868M26.967 13.7819H4.66699" stroke="#333333" stroke-linecap="round"/>
<path fill-rule="evenodd" clip-rule="evenodd" d="M10.468 19.5316H8.754C8.28 19.5316 7.896 19.1496 7.896 18.6791V17.2994C7.896 16.8289 8.28 16.4479 8.754 16.4479H10.468C10.942 16.4479 11.326 16.8289 11.326 17.2994V18.6791C11.326 19.1496 10.942 19.5316 10.468 19.5316ZM16.673 19.5316H14.96C14.486 19.5316 14.104 19.1496 14.104 18.6791V17.2994C14.104 16.8289 14.486 16.4479 14.96 16.4479H16.674C17.148 16.4479 17.532 16.8289 17.532 17.2994V18.6791C17.532 19.1496 17.147 19.5316 16.673 19.5316ZM22.88 19.5316H21.165C20.691 19.5316 20.307 19.1496 20.307 18.6791V17.2994C20.307 16.8289 20.691 16.4479 21.165 16.4479H22.879C23.353 16.4479 23.737 16.8289 23.737 17.2994V18.6791C23.737 19.1496 23.354 19.5316 22.88 19.5316ZM10.468 24.6734H8.754C8.28 24.6734 7.896 24.2914 7.896 23.8199V22.4412C7.896 21.9697 8.28 21.5897 8.754 21.5897H10.468C10.942 21.5897 11.326 21.9697 11.326 22.4412V23.8199C11.326 24.2914 10.942 24.6734 10.468 24.6734ZM16.673 24.6734H14.96C14.486 24.6734 14.104 24.2914 14.104 23.8199V22.4412C14.104 21.9697 14.486 21.5897 14.96 21.5897H16.674C17.148 21.5897 17.532 21.9697 17.532 22.4412V23.8199C17.532 24.2914 17.147 24.6734 16.673 24.6734ZM22.88 24.6734H21.165C20.691 24.6734 20.307 24.2914 20.307 23.8199V22.4412C20.307 21.9697 20.691 21.5897 21.165 21.5897H22.879C23.353 21.5897 23.737 21.9697 23.737 22.4412V23.8199C23.737 24.2914 23.354 24.6734 22.88 24.6734Z" fill="#FB792B"/>
</svg>
