<svg width="32" height="32" viewBox="0 0 32 32" fill="none" xmlns="http://www.w3.org/2000/svg">
<g clip-path="url(#clip0_1_661)">
<path fill-rule="evenodd" clip-rule="evenodd" d="M25.7081 15.7849C25.6951 15.5969 25.8641 14.0769 25.9121 13.7489C25.9201 13.7039 25.9461 13.6409 25.8991 13.6129C25.8561 13.5879 25.8101 13.6379 25.7691 13.6599C25.6711 13.7109 25.6191 13.7979 25.5841 13.8999C25.4831 14.2079 24.8811 15.9079 24.8401 15.9299C24.8351 16.0519 24.7201 16.0409 24.6431 16.0779C24.4251 16.0789 24.3511 16.1979 24.3081 16.4059C24.0331 17.7489 23.7421 19.0899 23.4551 20.4309C23.4451 20.4779 23.4291 20.5229 23.4131 20.5809C23.2721 20.4679 23.1311 20.3729 22.9561 20.3499C22.5851 20.2999 22.2511 20.4819 22.1131 20.8299C22.0711 20.9369 22.0281 20.9529 21.9261 20.9319C21.4861 20.8359 21.2591 20.4899 21.3551 20.0419C21.5401 19.1739 21.7251 18.3069 21.9131 17.4379C22.0091 16.9979 22.3461 16.7839 22.7871 16.8769C23.0741 16.9389 23.3611 17.0069 23.6491 17.0609C23.8611 17.1009 23.8261 17.1369 23.8751 16.9049C23.9271 16.6599 23.9751 16.4129 24.0391 16.1699C24.0671 16.0549 24.0421 15.9829 23.9391 15.9319C23.8051 15.8619 23.7691 15.7379 23.7531 15.6009C23.7531 15.5789 23.7561 15.5609 23.7611 15.5439C23.7561 15.5019 24.2851 13.7399 24.3841 13.3949C24.4941 13.0189 24.7121 12.7489 25.0621 12.5719C25.5321 12.3359 25.9951 12.0829 26.4591 11.8379C26.6431 11.7399 26.8331 11.6519 27.0421 11.6259C27.6661 11.5499 28.1941 12.0559 28.1441 12.6979C28.1191 13.0329 28.0611 13.3659 28.0141 13.6999L27.7061 15.8629C27.6771 16.0709 27.7521 16.2329 27.9081 16.3669C28.2051 16.6229 28.4961 16.8869 28.8001 17.1349C29.1151 17.3929 29.2621 17.7169 29.2861 18.1219C29.3391 19.0019 29.4131 19.8819 29.4781 20.7619C29.5031 21.1149 29.3191 21.4089 29.0001 21.5299C28.7001 21.6469 28.3601 21.5549 28.1551 21.3029C28.0591 21.1859 28.0031 21.0529 27.9911 20.9009C27.9421 20.2779 27.8951 19.6539 27.8491 19.0319C27.8321 18.8239 27.8131 18.6159 27.8081 18.4069C27.8051 18.2919 27.7621 18.2159 27.6761 18.1429C27.2221 17.7599 26.7761 17.3659 26.3201 16.9849C26.0351 16.7479 25.8101 16.4769 25.7111 16.1129C25.7111 16.1129 25.7131 15.8659 25.7081 15.7829M27.6831 11.2729C28.3431 11.2729 28.8751 10.7429 28.8761 10.0839C28.8781 9.41495 28.3461 8.87995 27.6801 8.88295C27.0181 8.88395 26.4861 9.41295 26.4851 10.0699C26.4821 10.7379 27.0141 11.2729 27.6831 11.2729Z" fill="#FB792B"/>
<path fill-rule="evenodd" clip-rule="evenodd" d="M22.8254 20.6629C22.5764 20.6669 22.3704 20.8739 22.3704 21.1199C22.3694 21.3739 22.5844 21.5829 22.8434 21.5799C23.0944 21.5779 23.2914 21.3769 23.2914 21.1219C23.2914 20.8589 23.0864 20.6579 22.8254 20.6629ZM28.2094 14.5229C28.2814 14.0869 28.3194 13.7619 28.3914 13.3619L28.4744 13.4099L30.0744 14.4549C30.2604 14.5779 30.4544 14.6929 30.6284 14.8279C30.8544 15.0039 30.8184 15.3639 30.5684 15.5829C30.3524 15.7729 30.0784 15.8089 29.8634 15.6689C29.2904 15.2989 28.8414 15.0959 28.2694 14.7239C28.1664 14.6569 28.1874 14.6629 28.2094 14.5229ZM26.7894 17.8069C26.4364 17.4949 26.0584 17.2089 25.7184 16.8499L25.6694 16.9839L24.7874 19.7269C24.6844 20.0489 24.5694 20.3669 24.4894 20.6909C24.3864 21.1129 24.6984 21.5279 25.1294 21.5739C25.4994 21.6139 25.8134 21.4139 25.9324 21.0449C26.2514 20.0679 26.5654 19.0889 26.8814 18.1109C26.9384 17.9359 26.9354 17.9369 26.7894 17.8069Z" fill="#FB792B"/>
<path fill-rule="evenodd" clip-rule="evenodd" d="M16.0841 22.7996H5.20406C3.46706 22.7996 2.06006 21.3926 2.06006 19.6546V6.90062C2.06006 6.20062 2.63006 5.63062 3.33006 5.63062H17.9601C18.6601 5.63062 19.2301 6.20062 19.2301 6.90062V19.6546C19.2301 21.3926 17.8201 22.7996 16.0841 22.7996Z" stroke="#333333" stroke-linecap="round"/>
<path d="M13.3306 3.30164H7.65161" stroke="#333333" stroke-linecap="round"/>
<path fill-rule="evenodd" clip-rule="evenodd" d="M6.61004 18.4817C6.61004 19.1157 6.09704 19.6287 5.46304 19.6287C4.82904 19.6287 4.31604 19.1157 4.31604 18.4817C4.31604 17.8487 4.82904 17.3357 5.46304 17.3357C6.09704 17.3357 6.61004 17.8487 6.61004 18.4817ZM16.916 18.4817C16.916 19.1157 16.403 19.6287 15.77 19.6287C15.136 19.6287 14.623 19.1157 14.623 18.4817C14.623 17.8487 15.136 17.3357 15.77 17.3357C16.403 17.3357 16.916 17.8487 16.916 18.4817Z" fill="#FB792B"/>
<path d="M3.88003 22.7997L0.728027 28.6987M17.11 22.7997L20.262 28.6987M3.27503 27.9337H17.713M6.12403 25.3667H14.864" stroke="#333333" stroke-linecap="round"/>
<path d="M10.1791 3.30164L11.3151 4.54064V5.63164" stroke="#333333" stroke-linecap="round" stroke-linejoin="round"/>
<path fill-rule="evenodd" clip-rule="evenodd" d="M9.76006 14.6046H5.32506C4.90506 14.6046 4.56506 14.2636 4.56506 13.8426V9.14664C4.56506 8.72664 4.90506 8.38464 5.32506 8.38464H9.76006C10.1801 8.38464 10.5221 8.72664 10.5221 9.14664V13.8426C10.5221 14.2626 10.1801 14.6046 9.76006 14.6046Z" stroke="#333333" stroke-linecap="round"/>
<path fill-rule="evenodd" clip-rule="evenodd" d="M15.9451 14.6046H5.32409C4.90409 14.6046 4.56409 14.2636 4.56409 13.8426V9.14664C4.56409 8.72664 4.90409 8.38464 5.32409 8.38464H15.9441C16.3661 8.38464 16.7071 8.72664 16.7071 9.14664V13.8426C16.7071 14.2626 16.3671 14.6046 15.9451 14.6046Z" stroke="#333333" stroke-linecap="round"/>
</g>
<defs>
<clipPath id="clip0_1_661">
<rect width="32" height="32" fill="white"/>
</clipPath>
</defs>
</svg>
