<svg width="32" height="32" viewBox="0 0 32 32" fill="none" xmlns="http://www.w3.org/2000/svg">
<g clip-path="url(#clip0_1_639)">
<path fill-rule="evenodd" clip-rule="evenodd" d="M4.37477 15.7849C4.36177 15.5969 4.53078 14.0769 4.57877 13.7489C4.58677 13.7039 4.61277 13.6409 4.56577 13.6129C4.52277 13.5879 4.47677 13.6379 4.43577 13.6599C4.33777 13.7109 4.28577 13.7979 4.25077 13.8999C4.14978 14.2079 3.54777 15.9079 3.50677 15.9299C3.50177 16.0519 3.38677 16.0409 3.30977 16.0779C3.09177 16.0789 3.01777 16.1979 2.97477 16.4059C2.69977 17.7489 2.40877 19.0899 2.12177 20.4309C2.11177 20.4779 2.09577 20.5229 2.07977 20.5809C1.93877 20.4679 1.79777 20.3729 1.62277 20.3499C1.25177 20.2999 0.917775 20.4819 0.779775 20.8299C0.737775 20.9369 0.694775 20.9529 0.592775 20.9319C0.152775 20.8359 -0.0742252 20.4899 0.0217748 20.0419C0.206775 19.1739 0.391775 18.3069 0.579775 17.4379C0.675775 16.9979 1.01277 16.7839 1.45377 16.8769C1.74077 16.9389 2.02777 17.0069 2.31577 17.0609C2.52777 17.1009 2.49277 17.1369 2.54177 16.9049C2.59378 16.6599 2.64178 16.4129 2.70578 16.1699C2.73378 16.0549 2.70877 15.9829 2.60577 15.9319C2.47177 15.8619 2.43578 15.7379 2.41978 15.6009C2.41978 15.5789 2.42277 15.5609 2.42777 15.5439C2.42277 15.5019 2.95178 13.7399 3.05078 13.3949C3.16077 13.0189 3.37878 12.7489 3.72878 12.5719C4.19877 12.3359 4.66177 12.0829 5.12577 11.8379C5.30977 11.7399 5.49977 11.6519 5.70878 11.6259C6.33278 11.5499 6.86077 12.0559 6.81077 12.6979C6.78577 13.0329 6.72778 13.3659 6.68078 13.6999L6.37278 15.8629C6.34378 16.0709 6.41877 16.2329 6.57477 16.3669C6.87177 16.6229 7.16278 16.8869 7.46677 17.1349C7.78177 17.3929 7.92877 17.7169 7.95278 18.1219C8.00578 19.0019 8.07978 19.8819 8.14478 20.7619C8.16978 21.1149 7.98577 21.4089 7.66677 21.5299C7.36677 21.6469 7.02677 21.5549 6.82177 21.3029C6.72577 21.1859 6.66978 21.0529 6.65777 20.9009C6.60878 20.2779 6.56177 19.6539 6.51577 19.0319C6.49877 18.8239 6.47977 18.6159 6.47477 18.4069C6.47178 18.2919 6.42877 18.2159 6.34277 18.1429C5.88877 17.7599 5.44277 17.3659 4.98677 16.9849C4.70178 16.7479 4.47677 16.4769 4.37777 16.1129C4.37777 16.1129 4.37978 15.8659 4.37477 15.7829M6.34977 11.2729C7.00977 11.2729 7.54178 10.7429 7.54278 10.0839C7.54478 9.41495 7.01277 8.87995 6.34678 8.88295C5.68477 8.88395 5.15277 9.41295 5.15177 10.0699C5.14878 10.7379 5.68077 11.2729 6.34977 11.2729Z" fill="#FB792B"/>
<path fill-rule="evenodd" clip-rule="evenodd" d="M1.49211 20.6629C1.24311 20.6669 1.03711 20.8739 1.03711 21.1199C1.03611 21.3739 1.25111 21.5829 1.51011 21.5799C1.76111 21.5779 1.95811 21.3769 1.95811 21.1219C1.95811 20.8589 1.75311 20.6579 1.49211 20.6629ZM6.87611 14.5229C6.94811 14.0869 6.98611 13.7619 7.05811 13.3619L7.14111 13.4099L8.74111 14.4549C8.92711 14.5779 9.12111 14.6929 9.29511 14.8279C9.52111 15.0039 9.48511 15.3639 9.23511 15.5829C9.01911 15.7729 8.74511 15.8089 8.53011 15.6689C7.95711 15.2989 7.50811 15.0959 6.93611 14.7239C6.83311 14.6569 6.85411 14.6629 6.87611 14.5229ZM5.45611 17.8069C5.10311 17.4949 4.72511 17.2089 4.38511 16.8499L4.33611 16.9839L3.45411 19.7269C3.35111 20.0489 3.23611 20.3669 3.15611 20.6909C3.05311 21.1129 3.36511 21.5279 3.79611 21.5739C4.16611 21.6139 4.48011 21.4139 4.59911 21.0449C4.91811 20.0679 5.23211 19.0889 5.54811 18.1109C5.60511 17.9359 5.60211 17.9369 5.45611 17.8069Z" fill="#FB792B"/>
<path fill-rule="evenodd" clip-rule="evenodd" d="M25.418 22.7996H14.538C12.801 22.7996 11.394 21.3926 11.394 19.6546V6.90062C11.394 6.20062 11.963 5.63062 12.664 5.63062H27.292C27.993 5.63062 28.562 6.20062 28.562 6.90062V19.6546C28.562 21.3926 27.154 22.7996 25.418 22.7996Z" stroke="#333333" stroke-linecap="round"/>
<path d="M22.6639 3.30164H16.9849" stroke="#333333" stroke-linecap="round"/>
<path fill-rule="evenodd" clip-rule="evenodd" d="M15.943 18.4817C15.943 19.1157 15.43 19.6287 14.796 19.6287C14.163 19.6287 13.65 19.1157 13.65 18.4817C13.65 17.8487 14.163 17.3357 14.796 17.3357C15.43 17.3357 15.943 17.8487 15.943 18.4817ZM26.25 18.4817C26.25 19.1157 25.737 19.6287 25.103 19.6287C24.469 19.6287 23.956 19.1157 23.956 18.4817C23.956 17.8487 24.469 17.3357 25.103 17.3357C25.737 17.3357 26.25 17.8487 26.25 18.4817Z" fill="#FB792B"/>
<path d="M13.213 22.7997L10.062 28.6987M26.443 22.7997L29.595 28.6987M12.608 27.9337H27.046M15.457 25.3667H24.198" stroke="#333333" stroke-linecap="round"/>
<path d="M19.512 3.30164L20.648 4.54064V5.63164" stroke="#333333" stroke-linecap="round" stroke-linejoin="round"/>
<path fill-rule="evenodd" clip-rule="evenodd" d="M19.094 14.6046H14.657C14.237 14.6046 13.897 14.2636 13.897 13.8426V9.14664C13.897 8.72664 14.237 8.38464 14.657 8.38464H19.094C19.514 8.38464 19.856 8.72664 19.856 9.14664V13.8426C19.856 14.2626 19.514 14.6046 19.094 14.6046Z" stroke="#333333" stroke-linecap="round"/>
<path fill-rule="evenodd" clip-rule="evenodd" d="M25.278 14.6046H14.658C14.237 14.6046 13.897 14.2636 13.897 13.8426V9.14664C13.897 8.72664 14.237 8.38464 14.657 8.38464H25.278C25.7 8.38464 26.04 8.72664 26.04 9.14664V13.8426C26.04 14.2626 25.7 14.6046 25.278 14.6046Z" stroke="#333333" stroke-linecap="round"/>
</g>
<defs>
<clipPath id="clip0_1_639">
<rect width="32" height="32" fill="white"/>
</clipPath>
</defs>
</svg>
