<svg width="32" height="33" viewBox="0 0 32 33" fill="none" xmlns="http://www.w3.org/2000/svg">
<path d="M7.07688 14.2047C6.81534 14.2047 6.59612 14.1126 6.41921 13.9283C6.24227 13.744 6.15381 13.5301 6.15381 13.2865V7.43787C6.15381 7.19429 6.24227 6.98035 6.41921 6.79606C6.59612 6.61179 6.81534 6.51965 7.07688 6.51965H12.9307C13.1923 6.51965 13.4115 6.61179 13.5884 6.79606C13.7654 6.98035 13.8538 7.19429 13.8538 7.43787V13.2865C13.8538 13.5301 13.7654 13.744 13.5884 13.9283C13.4115 14.1126 13.1923 14.2047 12.9307 14.2047H7.07688ZM19.0359 26.1009C18.791 26.1009 18.5759 26.0129 18.3907 25.8369C18.2054 25.6609 18.1128 25.4428 18.1128 25.1827V19.3595C18.1128 19.0994 18.2054 18.8813 18.3907 18.7053C18.5759 18.5293 18.791 18.4413 19.0359 18.4413H24.9154C25.1602 18.4413 25.3753 18.5293 25.5606 18.7053C25.7458 18.8813 25.8384 19.0994 25.8384 19.3595V25.1827C25.8384 25.4428 25.7458 25.6609 25.5606 25.8369C25.3753 26.0129 25.1602 26.1009 24.9154 26.1009H19.0359ZM7.07688 26.1009C6.81534 26.1009 6.59612 26.0129 6.41921 25.8369C6.24227 25.6609 6.15381 25.4428 6.15381 25.1827V19.3595C6.15381 19.0994 6.24227 18.8813 6.41921 18.7053C6.59612 18.5293 6.81534 18.4413 7.07688 18.4413H12.9307C13.1923 18.4413 13.4115 18.5293 13.5884 18.7053C13.7654 18.8813 13.8538 19.0994 13.8538 19.3595V25.1827C13.8538 25.4428 13.7654 25.6609 13.5884 25.8369C13.4115 26.0129 13.1923 26.1009 12.9307 26.1009H7.07688ZM7.17944 13.1845H12.8282V7.5399H7.17944V13.1845ZM19.1384 25.0806H24.8128V19.4616H19.1384V25.0806ZM7.17944 25.0806H12.8282V19.4616H7.17944V25.0806Z" fill="#333333"/>
<path d="M21.9204 15.5056C21.8008 15.5056 21.6898 15.4792 21.5872 15.4265C21.4847 15.3738 21.3867 15.301 21.2932 15.208L17.1556 11.0922C17.0621 10.9992 16.9889 10.8983 16.9359 10.7895C16.8829 10.6807 16.8564 10.5642 16.8564 10.4399C16.8564 10.3294 16.8829 10.219 16.9359 10.1084C16.9889 9.99792 17.0621 9.89617 17.1556 9.80319L21.2932 5.68733C21.3867 5.59438 21.4881 5.52154 21.5974 5.46882C21.7068 5.41612 21.824 5.38977 21.9489 5.38977C22.0599 5.38977 22.171 5.41612 22.2821 5.46882C22.3932 5.52154 22.4955 5.59438 22.5889 5.68733L26.7265 9.80319C26.82 9.89617 26.8932 10.0005 26.9462 10.1163C26.9992 10.232 27.0257 10.3493 27.0257 10.4682C27.0257 10.5872 26.9992 10.6976 26.9462 10.7997C26.8932 10.9017 26.82 10.9992 26.7265 11.0922L22.5889 15.208C22.4955 15.301 22.3906 15.3738 22.2742 15.4265C22.1579 15.4792 22.0399 15.5056 21.9204 15.5056ZM22.0154 14.493L26.0077 10.5216L22.0154 6.52481L17.9975 10.5216L22.0154 14.493Z" fill="#FB792B"/>
</svg>
